<svg width="18" height="19" viewBox="0 0 18 19" fill="none" xmlns="http://www.w3.org/2000/svg">
<path fill-rule="evenodd" clip-rule="evenodd" d="M11.9954 16.1667H15C15.8123 16.1667 16.6315 15.8319 17.1944 15.1786C17.8014 14.4743 18.0494 13.4429 17.6388 12.439C17.3106 11.6363 16.771 10.8703 16.3964 10.3387C16.3526 10.2765 16.3108 10.2171 16.2721 10.1616C15.7981 9.48209 15.6482 9.1925 15.6156 9.05089C15.542 8.7315 15.4685 8.40092 15.3947 8.06935C15.2544 7.43843 15.1134 6.80391 14.9693 6.23614C14.7448 5.35106 14.4685 4.43516 14.0589 3.61487C13.6409 2.7775 13.0439 1.95761 12.1383 1.36274C11.222 0.76083 10.1588 0.5 8.99997 0.5C7.83719 0.5 6.77396 0.768433 5.86026 1.37779C4.96032 1.97797 4.3673 2.80122 3.95145 3.63665C3.32297 4.89925 2.94961 6.55672 2.60494 8.0868C2.53165 8.41219 2.45965 8.73183 2.38677 9.04067C2.34984 9.19714 2.19227 9.4974 1.72333 10.1726C1.68367 10.2297 1.641 10.2905 1.59598 10.3547C1.22405 10.8848 0.691314 11.6441 0.365482 12.4344C-0.0480421 13.4376 0.197315 14.4707 0.804766 15.1772C1.36778 15.8319 2.1878 16.1667 2.99997 16.1667H6.00453C6.09101 17.746 7.39905 19 8.99997 19C10.6009 19 11.9089 17.746 11.9954 16.1667ZM9.98615 16.1667H8.0138C8.09315 16.6396 8.50448 17 8.99997 17C9.49547 17 9.9068 16.6396 9.98615 16.1667ZM15 14.1667H2.99997C2.44769 14.1667 2.00404 13.7073 2.21453 13.1967C2.44972 12.6262 2.84571 12.059 3.23555 11.5007C3.71268 10.8173 4.18061 10.1471 4.33331 9.5C4.41978 9.13354 4.50122 8.7745 4.58056 8.42468C5.35115 5.02719 5.92435 2.5 8.99997 2.5C12.1084 2.5 12.6652 5.00612 13.4323 8.45831C13.5075 8.79688 13.5848 9.14471 13.6666 9.5C13.814 10.1396 14.2797 10.8038 14.7566 11.4843C15.15 12.0455 15.5511 12.6177 15.7877 13.1961C15.9967 13.7073 15.5523 14.1667 15 14.1667Z" fill="black"/>
</svg>
